<?xml version="1.0" encoding="UTF-8"?>
<svg version="1.1" xmlns="http://www.w3.org/2000/svg" width="600" height="150">
<path d="M0 0 C6.27 0 12.54 0 19 0 C22.42697963 8.0790244 25.05518886 16.2947165 27.57421875 24.6887207 C28.25652541 26.95921445 28.94813807 29.22673361 29.640625 31.49414062 C30.07867706 32.94254148 30.51619691 34.39110344 30.953125 35.83984375 C31.15931458 36.51482407 31.36550415 37.18980438 31.57794189 37.88523865 C32.41927516 40.7070165 33 43.03614701 33 46 C33.66 46 34.32 46 35 46 C35.11165497 45.45440933 35.22330994 44.90881866 35.33834839 44.34669495 C36.51969138 38.78316737 38.03621835 33.42483598 39.8203125 28.02734375 C40.08383514 27.21882462 40.34735779 26.41030548 40.61886597 25.57728577 C41.4503015 23.02938146 42.2875391 20.48342939 43.125 17.9375 C43.69439747 16.19609005 44.26341138 14.45455464 44.83203125 12.71289062 C46.21622389 8.47354843 47.60826991 4.23690309 49 0 C55.6 0 62.2 0 69 0 C69 21.12 69 42.24 69 64 C64.71 64 60.42 64 56 64 C55.67 49.81 55.34 35.62 55 21 C50.38 35.19 45.76 49.38 41 64 C36.38 64 31.76 64 27 64 C23.23149484 55.14225188 20.49170901 46.08710588 17.75 36.875 C15.39875 29.016875 15.39875 29.016875 13 21 C13 35.19 13 49.38 13 64 C8.71 64 4.42 64 0 64 C0 42.88 0 21.76 0 0 Z " fill="#F8AB00" transform="translate(30,43)"/>
<path d="M0 0 C7.8845938 5.16947103 11.37358552 11.64876017 13.59375 20.70703125 C15.28624034 31.37291376 14.32467889 42.038052 9.2578125 51.62890625 C3.92769633 57.9954339 -1.7857821 62.49760699 -10.27392578 63.61743164 C-12.66784964 63.75309232 -15.03219512 63.78372461 -17.4296875 63.75390625 C-18.2664502 63.7477832 -19.10321289 63.74166016 -19.96533203 63.73535156 C-26.01634369 63.58168258 -30.90707766 62.80265177 -35.9921875 59.31640625 C-36.9203125 58.69765625 -37.8484375 58.07890625 -38.8046875 57.44140625 C-45.96391564 50.48672748 -48.06943845 42.38346139 -48.34814453 32.69384766 C-48.43965393 21.26925067 -47.16702938 11.90894078 -38.9921875 3.31640625 C-28.95066013 -4.63313625 -11.51129448 -5.75564724 0 0 Z M-30.3046875 16.25390625 C-34.33196642 23.5626717 -34.11903475 33.34594855 -31.8671875 41.25390625 C-29.972982 46.24772076 -26.76026494 48.93236753 -21.9921875 51.31640625 C-16.34331097 51.90388941 -11.77197904 51.65114453 -6.9921875 48.31640625 C-1.49043261 41.89769221 -0.73228727 34.94666492 -1.0546875 26.75390625 C-1.76218663 19.63729731 -3.93088295 15.11531327 -9.1796875 10.31640625 C-17.79279645 7.25396751 -24.62780466 9.04273075 -30.3046875 16.25390625 Z " fill="#F9AA00" transform="translate(159.9921875,44.68359375)"/>
<path d="M0 0 C37.86227735 0 37.86227735 0 46.5 8.16015625 C53.7463567 17.04826564 54.72134817 26.92215311 54 38 C52.20901569 47.63970967 47.88028372 54.24614205 40 60 C29 64 29 64 0 64 C0 42.88 0 21.76 0 0 Z M14 12 C14 25.2 14 38.4 14 52 C24.21570758 52.71626463 24.21570758 52.71626463 32 49 C37.14088152 43.85911848 38.72559669 39.34772038 39.3125 32.1875 C39.13050677 26.68488116 38.18065685 20.60963852 34.5703125 16.2890625 C27.83497152 10.49197797 23.75620428 12 14 12 Z " fill="#FEFEFE" transform="translate(324,43)"/>
<path d="M0 0 C4.62 0 9.24 0 14 0 C14.33 8.58 14.66 17.16 15 26 C16.0725 24.494375 17.145 22.98875 18.25 21.4375 C18.98863281 20.45007813 19.72726562 19.46265625 20.48828125 18.4453125 C22.30764937 16.0026757 23.96970056 13.49836889 25.60546875 10.9296875 C32.40918123 0.77914177 32.40918123 0.77914177 37.20166016 -0.66210938 C42.22036224 -1.28384008 47.02771268 -0.79533032 52 0 C49.09360012 4.48922799 45.95898884 8.69615527 42.625 12.875 C38.67355447 17.86290106 34.78565845 22.88424534 31 28 C36.31039462 38.37431522 42.60670249 48.18938787 49.22558594 57.77490234 C52 61.80231695 52 61.80231695 52 64 C46.23279027 65.52474578 40.57764087 66.6445711 35 64 C29.4858715 58.37473769 20 46.18797995 20 38 C19.38125 38.495 18.7625 38.99 18.125 39.5 C16 41 16 41 14 41 C14 48.59 14 56.18 14 64 C9.38 64 4.76 64 0 64 C0 42.88 0 21.76 0 0 Z " fill="#FEFEFE" transform="translate(498,43)"/>
<path d="M0 0 C12.54 0 25.08 0 38 0 C38 3.96 38 7.92 38 12 C30.08 12 22.16 12 14 12 C14 16.29 14 20.58 14 25 C21.26 25 28.52 25 36 25 C36 28.96 36 32.92 36 37 C28.74 37 21.48 37 14 37 C14 41.95 14 46.9 14 52 C21.92 52 29.84 52 38 52 C38 55.96 38 59.92 38 64 C25.46 64 12.92 64 0 64 C0 42.88 0 21.76 0 0 Z " fill="#FEFEFE" transform="translate(391,43)"/>
<path d="M0 0 C12.54 0 25.08 0 38 0 C38 3.96 38 7.92 38 12 C30.08 12 22.16 12 14 12 C14 16.29 14 20.58 14 25 C21.26 25 28.52 25 36 25 C36 28.96 36 32.92 36 37 C28.74 37 21.48 37 14 37 C14 41.95 14 46.9 14 52 C21.92 52 29.84 52 38 52 C38 55.96 38 59.92 38 64 C25.46 64 12.92 64 0 64 C0 42.88 0 21.76 0 0 Z " fill="#F8AB00" transform="translate(279,43)"/>
<path d="M0 0 C4.95 0 9.9 0 15 0 C16.83448254 5.90777169 18.66753588 11.81598419 20.49926758 17.72460938 C21.12257274 19.73449684 21.74626792 21.7442634 22.37036133 23.75390625 C23.26746603 26.64291169 24.16316617 29.53234937 25.05859375 32.421875 C25.3377916 33.31992859 25.61698944 34.21798218 25.90464783 35.14324951 C26.16484207 35.98381897 26.42503632 36.82438843 26.69311523 37.69042969 C26.92183823 38.42767273 27.15056122 39.16491577 27.38621521 39.92449951 C27.98179629 41.93844452 28.50662981 43.95885291 29 46 C29.36182373 44.86908936 29.36182373 44.86908936 29.73095703 43.71533203 C34.40490003 29.11564988 39.10038373 14.52592118 44 0 C48.95 0 53.9 0 59 0 C56.53130958 9.7396144 53.32352765 19.19022082 50.06689453 28.68774414 C49.12892205 31.42605001 48.19890475 34.1669686 47.26953125 36.90820312 C44.1406792 46.08902055 40.87682387 55.10394219 37 64 C31.72 64 26.44 64 21 64 C18.97194139 58.20631941 16.94566719 52.41201865 14.92089844 46.6171875 C14.23484049 44.65445963 13.54833247 42.691889 12.86132812 40.72949219 C9.37072851 30.7578085 5.89323374 20.78140285 2.5078125 10.7734375 C2.25200409 10.02736237 1.99619568 9.28128723 1.7326355 8.51260376 C0.73887234 5.55045941 0 3.14730098 0 0 Z " fill="#F9AB00" transform="translate(178,43)"/>
<path d="M0 0 C-0.58977747 1.8172331 -1.19728453 3.62872043 -1.8125 5.4375 C-2.14894531 6.44683594 -2.48539062 7.45617187 -2.83203125 8.49609375 C-3.21746094 9.32238281 -3.60289062 10.14867187 -4 11 C-7.76116823 12.25372274 -9.20858303 11.12490085 -12.75 9.71875 C-18.02802573 8.032714 -22.43538966 8.21769483 -27.375 10.6875 C-31.1126588 13.98019942 -33.0673567 17.13869995 -34 22 C-34.84879367 35.09370238 -34.84879367 35.09370238 -29 46.375 C-24.5953953 49.95374132 -19.38433768 49.31715962 -14 49 C-10.29340976 48.46315129 -6.67194292 47.75321906 -3 47 C-3 50.96 -3 54.92 -3 59 C-9.00877908 61.59485649 -13.91248557 62.5212547 -20.4375 62.4375 C-21.27571289 62.42847656 -22.11392578 62.41945313 -22.97753906 62.41015625 C-31.38317368 62.17402449 -36.83549785 60.51432682 -42.8125 54.4375 C-50.80392185 44.25308332 -51.27829081 32.45004896 -50 20 C-48.35211375 11.54605101 -44.16376188 4.7161801 -37.1328125 -0.34375 C-26.21161346 -6.90584384 -11.0732872 -5.3572707 0 0 Z " fill="#FEFEFE" transform="translate(488,46)"/>
<path d="M0 0 C10.23 0 20.46 0 31 0 C31 2.64 31 5.28 31 8 C28.16346849 10.45321644 26.74876504 11 23 11 C23 24.86 23 38.72 23 53 C24.65 53.33 26.3 53.66 28 54 C28.99 54.66 29.98 55.32 31 56 C31 58.64 31 61.28 31 64 C20.77 64 10.54 64 0 64 C0 61.36 0 58.72 0 56 C2.83653151 53.54678356 4.25123496 53 8 53 C8 39.14 8 25.28 8 11 C6.35 10.67 4.7 10.34 3 10 C2.01 9.34 1.02 8.68 0 8 C0 5.36 0 2.72 0 0 Z " fill="#F8AB00" transform="translate(238,43)"/>
</svg>
